<svg width="32" height="32" viewBox="0 0 32 32" fill="none" xmlns="http://www.w3.org/2000/svg">
<circle cx="16" cy="16" r="14.5" transform="rotate(-90 16 16)" fill="white" stroke="#E6E6E6"/>
<path d="M19.8734 15.7256L14.7349 11.1131C14.5665 10.962 14.2939 10.9623 14.1258 11.1139C13.9579 11.2654 13.9583 11.5109 14.1267 11.662L18.9594 16L14.1265 20.338C13.9582 20.4891 13.9577 20.7345 14.1257 20.886C14.2099 20.962 14.3203 21 14.4307 21C14.5408 21 14.6507 20.9623 14.7348 20.8868L19.8734 16.2744C19.9545 16.2018 20 16.103 20 16C20 15.8971 19.9544 15.7983 19.8734 15.7256Z" fill="#222222" stroke="#222222" stroke-width="0.55"/>
</svg>
