<svg width="32" height="32" viewBox="0 0 32 32" fill="none" xmlns="http://www.w3.org/2000/svg">
<circle cx="15" cy="15" r="14.5" transform="matrix(4.37114e-08 -1 -1 -4.37114e-08 31 31)" fill="white" stroke="#E6E6E6"/>
<path d="M12.1266 15.7256L17.2651 11.1131C17.4335 10.962 17.7061 10.9623 17.8742 11.1139C18.0421 11.2654 18.0417 11.5109 17.8733 11.662L13.0406 16L17.8735 20.338C18.0418 20.4891 18.0423 20.7345 17.8743 20.886C17.7901 20.962 17.6797 21 17.5693 21C17.4592 21 17.3493 20.9623 17.2652 20.8868L12.1266 16.2744C12.0455 16.2018 12 16.103 12 16C12 15.8971 12.0456 15.7983 12.1266 15.7256Z" fill="#222222" stroke="#222222" stroke-width="0.55"/>
</svg>
