<svg viewBox="0 0 20 20" fill="none" xmlns="http://www.w3.org/2000/svg">
<path d="M10 1C14.9706 1 19 5.02944 19 10C19 14.9706 14.9706 19 10 19C5.02944 19 1 14.9706 1 10C1 5.02944 5.02944 1 10 1ZM10 2.34979C5.77491 2.34979 2.34979 5.77492 2.34979 10C2.34979 14.2251 5.77491 17.6502 10 17.6502C14.2252 17.6502 17.6502 14.2251 17.6502 10C17.6502 5.77492 14.2252 2.34979 10 2.34979ZM9.9967 8.64933C10.3384 8.64915 10.6209 8.90282 10.6658 9.23226L10.672 9.32378L10.6753 14.2745C10.6756 14.6472 10.3736 14.9496 10.0008 14.9498C9.65916 14.9501 9.3766 14.6963 9.3317 14.367L9.32549 14.2754L9.32225 9.32468C9.32207 8.95195 9.62397 8.6496 9.9967 8.64933ZM10.0004 5.50184C10.4968 5.50184 10.8991 5.90419 10.8991 6.40051C10.8991 6.89682 10.4968 7.29917 10.0004 7.29917C9.50411 7.29917 9.10178 6.89682 9.10178 6.40051C9.10178 5.90419 9.50411 5.50184 10.0004 5.50184Z" fill="#F44453" stroke="#F44453" stroke-width="0.5"/>
</svg>
